<svg width="76" height="74" viewBox="0 0 76 74" fill="none" xmlns="http://www.w3.org/2000/svg">
<rect x="0.55127" width="74.6731" height="74" rx="7.86884" fill="#171717"/>
<path d="M48.3398 40.7686C47.1321 41.3007 45.7207 41.5668 44.1057 41.5668H42.9092L46.6317 48.5747H52.8846L48.5789 40.6589C48.5004 40.6966 48.4207 40.7331 48.3398 40.7686Z" fill="white"/>
<path fill-rule="evenodd" clip-rule="evenodd" d="M35.1611 27.3438V48.5747H40.9171V41.5668H42.9092H44.1057C45.7207 41.5668 47.1321 41.3007 48.3398 40.7686C48.4207 40.7331 48.5004 40.6966 48.5789 40.6589C49.6788 40.1304 50.5412 39.3791 51.1661 38.405C51.8424 37.3614 52.1806 36.0794 52.1806 34.5589C52.1806 33.0523 51.8528 31.7599 51.1971 30.6818C50.5415 29.6037 49.6235 28.7778 48.4434 28.2042C47.2632 27.6306 45.8863 27.3438 44.3127 27.3438H35.1611ZM44.6751 36.8396C44.1988 37.0055 43.6226 37.0884 42.9462 37.0884H40.9171V31.9465H42.9462C43.6226 31.9465 44.1988 32.0398 44.6751 32.2264C45.1582 32.4061 45.5274 32.6895 45.7828 33.0765C46.045 33.4566 46.1762 33.9508 46.1762 34.5589C46.1762 35.1602 46.045 35.6474 45.7828 36.0206C45.5274 36.3938 45.1582 36.6668 44.6751 36.8396Z" fill="white"/>
<path d="M32.709 27.4297V48.6606H26.9531V32.7374H26.8288L22.1909 35.5157V30.6226L27.4086 27.4297H32.709Z" fill="#DA2128"/>
</svg>
